<svg width="38" height="38" viewBox="0 0 38 38" fill="none" xmlns="http://www.w3.org/2000/svg">
<path d="M4.68453 34.9992C4.59721 34.9692 4.51072 34.9376 4.4234 34.9093C3.6242 34.6499 3.07117 33.9272 3.06951 33.0839C3.06285 29.8938 3.06535 26.7028 3.06784 23.5127C3.06784 23.0262 3.25496 22.6045 3.57846 22.2228C3.13936 21.7371 3.05786 21.16 3.06036 20.5379C3.072 17.5449 3.06535 14.5518 3.06618 11.5588C3.06618 10.2615 3.86704 9.44979 5.15524 9.44896C8.6406 9.4473 12.126 9.44813 15.6105 9.44896C16.2351 9.44896 16.4421 9.66102 16.4421 10.2972C16.443 11.1796 16.4421 12.0619 16.4421 12.9826C17.6713 12.9277 18.6909 13.3285 19.4119 14.3439C19.8618 14.9776 20.0298 15.6903 19.9649 16.4671C19.8493 17.8659 18.6127 19.4493 16.4421 19.303C16.4421 19.683 16.4421 20.0614 16.4421 20.4398C16.4421 20.8124 16.4421 21.1849 16.4421 21.5991C16.5744 21.5991 16.6841 21.5991 16.7939 21.5991C17.8626 21.5991 18.9304 21.5983 19.999 21.5991C20.6652 21.5999 20.9122 21.9509 20.6984 22.5879C20.4223 23.4129 20.6893 24.2828 21.372 24.7834C22.0473 25.2782 22.9688 25.2757 23.6366 24.7784C24.3218 24.2678 24.578 23.417 24.2969 22.5821C24.0882 21.9625 24.3385 21.6016 24.9822 21.5991C25.7082 21.5966 26.4342 21.5949 27.1602 21.5991C28.3336 21.6057 29.1811 22.4133 29.1861 23.5867C29.2002 26.7253 29.1969 29.8638 29.1877 33.0024C29.1844 33.9854 28.643 34.6632 27.6983 34.9443C27.6608 34.9551 27.6276 34.9817 27.5918 35C19.9566 34.9992 12.3206 34.9992 4.68453 34.9992ZM15.198 21.5966C15.198 21.4386 15.198 21.3255 15.198 21.2132C15.198 20.3192 15.1939 19.426 15.2005 18.532C15.2047 18.0256 15.5839 17.7578 16.0612 17.91C16.1303 17.9316 16.1976 17.959 16.2675 17.9798C17.1158 18.2385 18.0222 17.8859 18.4721 17.1241C18.9171 16.3706 18.8048 15.4151 18.1794 14.8013C17.5881 14.2217 16.8904 14.0961 16.1128 14.3656C15.5689 14.5543 15.2063 14.2974 15.1997 13.7252C15.1964 13.4549 15.1988 13.1846 15.1988 12.9144C15.1988 12.1892 15.1988 11.464 15.1988 10.7263C15.1032 10.7139 15.0334 10.6964 14.9635 10.6964C11.6752 10.6947 8.38779 10.6931 5.09952 10.6972C4.57808 10.6981 4.31279 10.9717 4.31279 11.4898C4.31113 14.5968 4.3103 17.7046 4.31279 20.8115C4.31279 21.3305 4.57975 21.5924 5.10284 21.5958C5.81888 21.5999 6.53408 21.5958 7.25012 21.5974C7.91459 21.5991 8.16491 21.9534 7.95284 22.5871C7.67508 23.4137 7.94203 24.2853 8.62397 24.7817C9.30508 25.2774 10.2149 25.2749 10.8885 24.7759C11.5754 24.2661 11.8324 23.4145 11.5496 22.5804C11.3359 21.9509 11.5921 21.5983 12.2649 21.5974C13.227 21.5958 14.1901 21.5966 15.198 21.5966ZM12.911 22.8598C13.0358 25.0337 11.4424 26.3028 9.98286 26.3909C9.14956 26.4408 8.39943 26.2171 7.75658 25.6832C6.87921 24.9556 6.52493 23.9967 6.60726 22.844C6.1191 22.844 5.66503 22.8432 5.21179 22.844C4.5523 22.8449 4.31113 23.086 4.31113 23.743C4.31113 26.7768 4.31113 29.8106 4.31113 32.8444C4.31113 33.5105 4.54648 33.75 5.20181 33.75C8.41689 33.7509 11.6311 33.75 14.8462 33.75C14.956 33.75 15.0658 33.75 15.198 33.75C15.198 32.8261 15.198 31.9446 15.198 31.0631C15.198 30.0501 15.391 29.8971 16.349 30.1516C17.6763 30.5034 18.9395 29.3491 18.71 27.9935C18.5046 26.7826 17.337 26.104 16.1527 26.5057C15.554 26.7095 15.2005 26.4575 15.1988 25.8229C15.1972 25.1892 15.198 24.5555 15.198 23.9218C15.198 23.5717 15.198 23.2224 15.198 22.8582C14.4171 22.8598 13.6753 22.8598 12.911 22.8598ZM16.4596 25.1327C18.5869 25.0021 19.9009 26.5664 19.9791 28.1299C20.0181 28.9041 19.8069 29.6127 19.3262 30.2248C18.5977 31.1529 17.6197 31.5279 16.4588 31.4539C16.4588 32.2323 16.4588 32.9758 16.4588 33.7509C16.5952 33.7509 16.7174 33.7509 16.8388 33.7509C20.2202 33.7509 23.6008 33.7509 26.9822 33.7509C27.7299 33.7509 27.9486 33.5338 27.9486 32.7895C27.9486 29.7965 27.9486 26.8043 27.9478 23.8112C27.9478 23.6873 27.9478 23.5609 27.9278 23.4387C27.8737 23.1168 27.65 22.8723 27.3274 22.8582C26.7818 22.8341 26.2338 22.8515 25.7747 22.8515C25.6267 23.4628 25.5385 24.0474 25.3398 24.5913C25.1285 25.1684 24.6903 25.5984 24.1647 25.9227C23.6499 26.2404 23.0902 26.4001 22.4823 26.3943C21.7039 26.3868 21.0186 26.1323 20.4356 25.6192C19.6073 24.8907 19.2838 23.9518 19.3545 22.8615C18.3757 22.8615 17.4268 22.8615 16.4604 22.8615C16.4596 23.6224 16.4596 24.3659 16.4596 25.1327Z" fill="#927AFF"/>
<path d="M34.9383 7.30592C34.7561 7.4448 34.594 7.64772 34.3886 7.70843C34.0343 7.81321 33.7008 7.48222 33.6958 7.06558C33.6875 6.40027 33.6983 5.73497 33.6917 5.06966C33.6875 4.5923 33.4122 4.31371 32.934 4.31371C29.6142 4.31038 26.2943 4.31204 22.9744 4.31288C22.9337 4.31288 22.8929 4.32036 22.8297 4.32701C22.8297 5.0813 22.8297 5.83227 22.8297 6.61234C23.9366 6.53416 24.8789 6.8743 25.6049 7.7234C26.1488 8.35959 26.38 9.10473 26.3492 9.94136C26.2868 11.6778 24.9861 12.7939 22.8064 12.9386C22.8064 13.3045 22.8064 13.6745 22.8064 14.0446C22.8064 14.418 22.8064 14.7923 22.8064 15.2039C22.9295 15.2097 23.0385 15.2189 23.1474 15.2189C24.0081 15.2197 24.8697 15.2189 25.7304 15.2197C26.4307 15.2206 26.6685 15.5515 26.4465 16.216C26.0939 17.2747 26.6627 18.3832 27.7172 18.6909C28.7601 18.9953 29.8612 18.3841 30.089 17.3104C30.1672 16.9445 30.1098 16.5254 30.0175 16.1545C29.877 15.5856 30.099 15.2239 30.6836 15.2206C31.3997 15.2164 32.1157 15.2214 32.8309 15.2189C33.428 15.2172 33.6883 14.9594 33.6908 14.3706C33.6925 13.9032 33.6908 13.435 33.6908 12.9677C33.6908 12.4845 33.8064 12.2674 34.1183 12.1585C34.4268 12.0512 34.6555 12.1593 34.9366 12.5452C34.9366 13.3145 34.9366 14.0837 34.9366 14.853C34.8784 15.0068 34.831 15.1648 34.7603 15.3129C34.4044 16.0605 33.8006 16.4372 32.9831 16.463C32.4667 16.4796 31.9486 16.4663 31.3955 16.4663C31.477 17.6248 31.1136 18.5895 30.2204 19.3188C29.6092 19.8178 28.8965 20.0399 28.1106 20.0124C26.6186 19.96 24.9745 18.7109 25.0868 16.4663C24.883 16.4663 24.6801 16.4663 24.4772 16.4663C23.772 16.4663 23.0667 16.4672 22.3607 16.4663C21.7877 16.4647 21.5598 16.2435 21.559 15.6804C21.5573 14.5369 21.5565 13.3943 21.559 12.2508C21.5598 11.6088 21.9249 11.3543 22.5395 11.5622C23.3736 11.845 24.2269 11.588 24.7317 10.9027C25.2306 10.2258 25.2323 9.31597 24.7375 8.63403C24.2393 7.94794 23.3728 7.68098 22.5478 7.95958C21.9141 8.17331 21.5607 7.92382 21.559 7.25768C21.5573 6.14579 21.5698 5.03307 21.5523 3.92118C21.5465 3.54029 21.6613 3.25837 21.9873 3.06543C25.7637 3.06543 29.5402 3.06543 33.3174 3.06543C33.5453 3.16024 33.7848 3.23342 33.9977 3.35317C34.5175 3.64508 34.7769 4.13408 34.9358 4.68711C34.9383 5.55949 34.9383 6.4327 34.9383 7.30592Z" fill="#927AFF"/>
<path d="M34.9384 10.1127C34.7746 10.2558 34.6316 10.4529 34.4411 10.5302C34.1642 10.6416 33.864 10.452 33.745 10.1668C33.6286 9.88901 33.7301 9.57465 33.9887 9.41082C34.2465 9.24782 34.5675 9.29106 34.7746 9.52143C34.8345 9.58879 34.8844 9.6653 34.9393 9.73765C34.9384 9.86323 34.9384 9.98797 34.9384 10.1127Z" fill="#927AFF"/>
</svg>
