<svg width="38" height="38" viewBox="0 0 38 38" fill="none" xmlns="http://www.w3.org/2000/svg">
<path d="M18.3789 34C14.3438 34 10.3086 34 6.27347 34C6.24926 33.9851 6.22582 33.964 6.19926 33.9578C4.76723 33.6187 3.99301 32.6437 3.99301 31.1719C3.99223 27.4906 3.99066 23.8086 3.99613 20.1273C3.99691 19.8562 4.01879 19.5781 4.08441 19.3164C4.38988 18.0969 5.43832 17.3195 6.77347 17.3164C9.08363 17.3109 11.393 17.3148 13.7032 17.3148C13.8125 17.3148 13.9219 17.3148 14.0321 17.3148C14.0446 17.2844 14.0563 17.2547 14.0688 17.2242C13.8891 17.0617 13.7024 16.9062 13.5313 16.7351C12.2696 15.4734 12.2664 13.9148 13.5227 12.6562C15.9758 10.1977 18.4352 7.74609 20.8789 5.27734C21.4563 4.69453 22.0461 4.16172 22.8821 4C23.1352 4 23.3891 4 23.6422 4C24.4774 4.16016 25.0672 4.69062 25.6438 5.27344C27.9727 7.6289 30.3125 9.97343 32.6633 12.3062C33.2461 12.8844 33.7719 13.4773 33.9344 14.3125C33.9344 14.5664 33.9344 14.8203 33.9344 15.0742C33.7703 15.9101 33.2438 16.5039 32.661 17.0828C30.1899 19.5367 27.7367 22.0094 25.275 24.4726C24.0453 25.7031 22.4782 25.6992 21.2446 24.4664C21.0633 24.2851 20.8797 24.1062 20.6461 23.8765C20.6461 24.0601 20.6461 24.1648 20.6461 24.2695C20.6461 26.5836 20.6492 28.8984 20.6446 31.2125C20.6422 32.4922 19.9367 33.4984 18.7914 33.8742C18.6547 33.9195 18.5164 33.9586 18.3789 34ZM12.3196 32.2422C14.161 32.2422 16.0024 32.2429 17.843 32.2422C18.5336 32.2422 18.8891 31.8906 18.8899 31.1992C18.8914 27.5094 18.8914 23.8203 18.8899 20.1305C18.8899 19.4383 18.5336 19.075 17.8508 19.075C14.1586 19.0734 10.4664 19.0734 6.77426 19.075C6.1016 19.075 5.74691 19.4359 5.74691 20.1086C5.74613 23.8078 5.74613 27.507 5.74691 31.2062C5.74691 31.8945 6.10004 32.2422 6.79535 32.2429C8.63754 32.2429 10.4782 32.2422 12.3196 32.2422ZM20.6727 20.5383C20.6641 20.539 20.6547 20.5398 20.6461 20.5406C20.6461 20.6867 20.6617 20.8351 20.643 20.9797C20.6055 21.268 20.7211 21.4695 20.9266 21.6656C21.4758 22.1914 22.0039 22.7406 22.5438 23.2765C23.018 23.7476 23.5055 23.757 23.9727 23.289C26.6071 20.6539 29.2391 18.0172 31.8688 15.3773C32.2946 14.95 32.293 14.4359 31.8664 14.007C29.2297 11.3601 26.5906 8.7164 23.9492 6.07422C23.5196 5.64453 23.0071 5.64609 22.5828 6.07109C19.9422 8.71328 17.3032 11.3578 14.6649 14.0031C14.2368 14.432 14.2328 14.9445 14.6539 15.3711C15.2493 15.9758 15.8477 16.5773 16.4563 17.1687C16.5414 17.2516 16.6899 17.3023 16.8117 17.3086C17.1907 17.3266 17.5719 17.3078 17.9516 17.3172C19.2633 17.3484 20.3024 18.1641 20.5703 19.4039C20.6492 19.7726 20.6407 20.1594 20.6727 20.5383Z" fill="#DFDCED"/>
<path d="M9.5542 22.1062C9.54951 22.5851 9.15341 22.9788 8.6792 22.9757C8.21123 22.9734 7.80576 22.5671 7.80342 22.0984C7.80107 21.6148 8.21201 21.2132 8.70107 21.2218C9.18388 21.2304 9.55966 21.6203 9.5542 22.1062Z" fill="#DFDCED"/>
<path d="M16.6912 29.2351C16.6966 29.7219 16.3138 30.1195 15.8326 30.1273C15.3631 30.1351 14.9498 29.7328 14.9412 29.2594C14.9326 28.7875 15.3326 28.3789 15.8084 28.3726C16.2951 28.3664 16.6865 28.7492 16.6912 29.2351Z" fill="#DFDCED"/>
<path d="M15.8256 21.2218C16.3045 21.2312 16.6889 21.6289 16.6811 22.1078C16.6733 22.5812 16.2686 22.9796 15.7991 22.9757C15.317 22.9718 14.9139 22.5499 14.9287 22.0671C14.9444 21.5898 15.3436 21.2132 15.8256 21.2218Z" fill="#DFDCED"/>
<path d="M13.1805 25.7282C13.1805 26.2118 12.7867 26.6087 12.3094 26.6087C11.8399 26.6087 11.4305 26.1985 11.4305 25.7274C11.4305 25.2524 11.832 24.854 12.3102 24.854C12.7953 24.8556 13.1805 25.2415 13.1805 25.7282Z" fill="#DFDCED"/>
<path d="M9.65959 29.246C9.66037 29.7155 9.25959 30.1226 8.79006 30.1273C8.31818 30.1327 7.91584 29.7374 7.90881 29.2632C7.90099 28.7687 8.29474 28.3702 8.78771 28.3726C9.26271 28.3749 9.6588 28.771 9.65959 29.246Z" fill="#DFDCED"/>
<path d="M18.3633 15.5569C17.8797 15.5499 17.4937 15.1514 17.5031 14.6694C17.5117 14.1936 17.9234 13.7952 18.3945 13.8061C18.8718 13.8171 19.264 14.2249 19.2554 14.7007C19.2461 15.1858 18.8515 15.5639 18.3633 15.5569Z" fill="#DFDCED"/>
<path d="M28.3906 15.557C27.9062 15.5609 27.5093 15.175 27.5046 14.6937C27.4999 14.2187 27.8984 13.8125 28.3734 13.8062C28.8476 13.8 29.2515 14.1984 29.257 14.6765C29.2617 15.1609 28.8757 15.5531 28.3906 15.557Z" fill="#DFDCED"/>
<path d="M23.3337 15.557C22.8469 15.5625 22.4555 15.182 22.4493 14.6968C22.443 14.2156 22.8305 13.8148 23.3102 13.807C23.786 13.7992 24.1876 14.1922 24.1954 14.6742C24.2024 15.157 23.818 15.5515 23.3337 15.557Z" fill="#DFDCED"/>
</svg>
