<svg width="38" height="38" viewBox="0 0 38 38" fill="none" xmlns="http://www.w3.org/2000/svg">
<path d="M23.9273 35.3335C24.089 35.1255 24.3135 34.9416 24.4017 34.7057C24.8729 33.4462 25.3155 32.1754 25.7543 30.9039C25.8279 30.6914 25.9103 30.635 26.1367 30.6845C27.431 30.9641 28.7311 31.2203 30.026 31.4987C30.3431 31.5666 30.6139 31.5488 30.8162 31.2736C31.0236 30.992 30.931 30.7257 30.7743 30.4517C29.5821 28.359 28.3988 26.2612 27.2021 24.1717C27.081 23.9605 27.0911 23.8451 27.2719 23.6719C33.1074 18.0603 31.9241 8.53459 24.8995 4.53496C24.0275 4.03841 23.1042 3.66426 22.1333 3.40679C21.6615 3.28122 21.3095 3.43342 21.215 3.80821C21.118 4.19314 21.3298 4.48739 21.801 4.62564C25.4943 5.70624 28.0145 8.05707 29.2149 11.706C31.2455 17.877 27.3004 24.3981 20.8999 25.5554C15.1607 26.5935 9.65306 22.8596 8.47099 17.1287C7.33331 11.6166 10.7318 6.09562 16.1659 4.63198C16.4189 4.56349 16.6871 4.48295 16.7449 4.2109C16.7861 4.01685 16.7518 3.76889 16.6592 3.59323C16.5286 3.34401 16.2515 3.30088 15.9908 3.37508C15.5564 3.49811 15.1163 3.61479 14.701 3.78728C10.4058 5.57054 7.80386 8.74767 7.13673 13.3529C6.55711 17.3545 7.83176 20.8024 10.7045 23.6491C10.8947 23.8375 10.9188 23.9643 10.7838 24.1989C9.59028 26.2783 8.40568 28.3634 7.23629 30.4568C7.12975 30.647 7.08092 30.9216 7.12404 31.1322C7.19253 31.4638 7.5242 31.5907 7.91167 31.5101C9.22945 31.2374 10.5479 30.9692 11.8631 30.6845C12.0889 30.6356 12.1726 30.6908 12.2461 30.9039C12.6818 32.1652 13.1365 33.4202 13.5753 34.6809C13.6724 34.9587 13.8024 35.1959 14.0731 35.3335C14.1993 35.3335 14.3255 35.3335 14.4524 35.3335C14.6154 35.1489 14.8157 34.9853 14.9362 34.776C16.2337 32.5159 17.5179 30.2482 18.8065 27.9829C18.8617 27.8859 18.9226 27.7927 19.0006 27.6652C19.0786 27.7921 19.1394 27.8859 19.1946 27.9829C20.4832 30.2482 21.768 32.5159 23.0655 34.776C23.186 34.9853 23.3864 35.1489 23.5494 35.3335C23.6743 35.3335 23.8011 35.3335 23.9273 35.3335ZM23.6064 33.1843C22.406 31.0732 21.241 29.0255 20.0602 26.9486C22.283 26.7273 24.2634 25.9815 26.0587 24.7018C27.0607 26.4686 28.0455 28.2055 29.0558 29.9862C28.908 29.9672 28.8243 29.9622 28.7431 29.9457C27.7247 29.7345 26.7062 29.5214 25.6877 29.3096C25.2229 29.2132 24.9762 29.3489 24.8132 29.8011C24.6173 30.3445 24.4283 30.8906 24.2343 31.4347C24.0345 31.9953 23.8322 32.5552 23.6064 33.1843ZM8.9333 30.0027C9.95493 28.2024 10.9436 26.4597 11.8885 24.795C12.874 25.2833 13.8017 25.8357 14.7967 26.2092C15.7873 26.5808 16.8457 26.7723 17.8844 27.0457C16.7537 29.0337 15.5901 31.0783 14.3959 33.1773C14.3306 33.0055 14.2926 32.9097 14.2583 32.8127C13.8994 31.8031 13.5436 30.7929 13.1822 29.7846C13.0268 29.3521 12.7712 29.2145 12.3254 29.3064C11.8929 29.3952 11.4611 29.4859 11.0286 29.574C10.3519 29.7129 9.67463 29.8505 8.9333 30.0027Z" fill="#DFDCED"/>
<path d="M28.4751 15.0003C28.4802 9.77678 24.225 5.51714 19.0008 5.51587C13.7766 5.51524 9.52011 9.77361 9.52455 14.9978C9.52899 20.2093 13.7709 24.4563 18.983 24.467C24.2047 24.4772 28.47 20.2233 28.4751 15.0003ZM27.2125 14.9762C27.2201 19.5041 23.5337 23.2 19.0071 23.2038C14.4919 23.2076 10.8043 19.5365 10.7878 15.0213C10.7713 10.4927 14.4501 6.79053 18.9779 6.77848C23.5065 6.7677 27.2049 10.449 27.2125 14.9762Z" fill="#DFDCED"/>
<path d="M19.0014 2.99146C18.6653 2.99082 18.3805 3.26795 18.371 3.60342C18.3615 3.95094 18.6513 4.24899 18.9988 4.24963C19.347 4.25026 19.6368 3.95347 19.6286 3.60532C19.6209 3.26922 19.3375 2.99209 19.0014 2.99146Z" fill="#DFDCED"/>
<path d="M22.9728 19.7262C22.8421 18.9316 22.7648 18.1078 22.5593 17.3176C22.3653 16.5731 22.4927 16.0442 23.1129 15.5515C23.7109 15.0765 24.2145 14.4829 24.7662 13.9477C24.9799 13.7403 25.0991 13.5108 24.9995 13.2146C24.9 12.9185 24.6666 12.8132 24.3711 12.7713C23.3717 12.6299 22.3748 12.4714 21.376 12.3268C21.1832 12.2989 21.0633 12.2228 20.9739 12.0376C20.5338 11.1295 20.0747 10.2309 19.6282 9.32597C19.4989 9.06343 19.3308 8.8662 19.0137 8.8605C18.6814 8.85416 18.5051 9.05582 18.3701 9.32977C17.9281 10.2252 17.4721 11.1137 17.0383 12.0129C16.9388 12.219 16.8069 12.3027 16.5893 12.3331C15.5899 12.4733 14.5924 12.6293 13.5936 12.7745C13.3107 12.8157 13.092 12.9356 13 13.2191C12.9087 13.5013 13.0102 13.7283 13.2156 13.9293C13.9525 14.651 14.6818 15.3803 15.4219 16.0994C15.5576 16.2313 15.5943 16.3524 15.5607 16.5421C15.3781 17.5669 15.2139 18.5942 15.0414 19.6209C14.9976 19.8828 15.068 20.1054 15.2773 20.2671C15.5113 20.4478 15.7611 20.432 16.0167 20.2982C16.9204 19.8257 17.8298 19.3641 18.7284 18.8827C18.93 18.7749 19.081 18.7838 19.2788 18.8891C20.1787 19.3685 21.0843 19.8365 21.9936 20.2982C22.4864 20.5499 22.9855 20.2582 22.9728 19.7262ZM16.4917 18.624C16.6096 17.9131 16.6864 17.2555 16.8341 16.6143C16.9584 16.0734 16.8487 15.6764 16.4232 15.3004C15.9222 14.8577 15.4846 14.3434 15.0027 13.8437C15.673 13.7422 16.3439 13.6148 17.0206 13.5469C17.5241 13.4968 17.8462 13.2933 18.0517 12.817C18.3244 12.1854 18.6599 11.5804 18.9991 10.9025C19.3378 11.5791 19.6733 12.1835 19.9459 12.8151C20.1514 13.2901 20.4717 13.4962 20.9758 13.5469C21.6531 13.6141 22.324 13.7429 23.0463 13.8526C22.9335 13.9712 22.858 14.0549 22.7775 14.1342C22.3126 14.5927 21.8497 15.0524 21.3798 15.5058C21.1496 15.7278 21.0595 15.9713 21.121 16.2998C21.2618 17.0519 21.3722 17.8097 21.5053 18.6259C20.8192 18.2714 20.1761 17.9651 19.5597 17.6112C19.1685 17.3861 18.8324 17.3836 18.4411 17.6068C17.8234 17.9581 17.181 18.267 16.4917 18.624Z" fill="#DFDCED"/>
</svg>
